<svg width="92" height="92" viewBox="0 0 92 92" fill="none" xmlns="http://www.w3.org/2000/svg">
<g clip-path="url(#clip0_2_19)">
<path d="M21.5625 46C21.5625 56.359 28.1356 65.6278 37.9189 69.0643C39.3234 69.5576 40.8618 68.8192 41.3553 67.4146C41.8487 66.0102 41.11 64.4717 39.7055 63.9783C32.078 61.2991 26.9531 54.0741 26.9531 46C26.9531 35.4974 35.4974 26.9531 46 26.9531C48.8905 26.9531 51.6673 27.5867 54.2538 28.8359C55.5942 29.4838 57.2055 28.9218 57.8531 27.5815C58.5007 26.2412 57.939 24.6298 56.5985 23.9822C54.0883 22.7695 51.4395 22.009 48.6953 21.7091V16.2966C61.7027 17.4897 72.2824 26.9891 75.0947 39.4083C75.4228 40.8575 76.8633 41.7709 78.3186 41.4419C79.7705 41.1132 80.6808 39.6698 80.3521 38.2179C76.8019 22.5386 62.7438 10.7812 46 10.7812C39.3338 10.7812 32.8392 12.661 27.2185 16.2172C25.9605 17.013 25.5859 18.6782 26.3819 19.936C27.1777 21.1941 28.8431 21.5686 30.1007 20.7726C34.0966 18.2444 38.6157 16.7217 43.3047 16.2978V21.7118C31.0935 23.0579 21.5625 33.4361 21.5625 46Z" fill="#E61C1C"/>
<path d="M78.3182 50.5587C76.8669 50.2299 75.4231 51.1404 75.0943 52.5922C74.0553 57.1809 71.909 61.4729 68.8974 65.0857L65.0704 61.2587C68.462 57.0183 70.4375 51.674 70.4375 46C70.4375 42.2907 69.6235 38.7248 68.0178 35.4013C67.3702 34.0612 65.759 33.4995 64.4183 34.1469C63.078 34.7945 62.5163 36.406 63.1639 37.7464C64.0198 39.518 64.5865 41.379 64.8586 43.3047H59.388C58.133 37.0613 52.6077 32.3438 46.0002 32.3438C38.47 32.3438 32.3439 38.4699 32.3439 46C32.3439 53.5302 38.47 59.6563 46.0002 59.6563C52.6077 59.6563 58.133 54.9388 59.388 48.6953H64.8516C63.8548 55.6464 59.0613 61.6016 52.2945 63.9785C50.8902 64.4719 50.1515 66.0104 50.6447 67.4148C51.1382 68.8193 52.6766 69.5578 54.0811 69.0645C56.734 68.1327 59.1483 66.769 61.2621 65.0739L65.0887 68.9005C59.7206 73.384 52.9235 75.8282 46 75.8282C29.5527 75.8282 16.1719 62.4474 16.1719 46C16.1719 40.3557 17.7628 34.858 20.7726 30.1009C21.5686 28.8429 21.194 27.1779 19.936 26.3821C18.678 25.5863 17.0132 25.9607 16.2172 27.2187C12.661 32.8394 10.7812 39.3338 10.7812 46C10.7812 65.4198 26.5803 81.2188 46 81.2188C62.7442 81.2188 76.8013 69.462 80.3519 53.7827C80.6806 52.331 79.7701 50.8875 78.3182 50.5587ZM46 54.2657C41.4424 54.2657 37.7344 50.5576 37.7344 46C37.7344 41.4424 41.4424 37.7344 46 37.7344C50.5576 37.7344 54.2656 41.4424 54.2656 46C54.2656 50.5576 50.5576 54.2657 46 54.2657Z" fill="#E61C1C"/>
<path d="M46 0C20.5771 0 0 20.5737 0 46C0 71.4229 20.5737 92 46 92C71.4227 92 92 71.4263 92 46C92 20.5771 71.4263 0 46 0ZM46 86.6094C23.5565 86.6094 5.39062 68.4467 5.39062 46C5.39062 23.5565 23.5533 5.39062 46 5.39062C68.4433 5.39062 86.6094 23.5531 86.6094 46C86.6094 68.4433 68.4469 86.6094 46 86.6094Z" fill="#E61C1C"/>
</g>
<defs>
<clipPath id="clip0_2_19">
<rect width="92" height="92" fill="white"/>
</clipPath>
</defs>
</svg>
